<?xml version="1.0" encoding="utf-8"?>
<svg width="116px" height="27px" viewBox="0 0 116 27" version="1.1" xmlns:xlink="http://www.w3.org/1999/xlink" xmlns="http://www.w3.org/2000/svg">
  <defs>
    <linearGradient gradientUnits="userSpaceOnUse" x1="0" y1="0" x2="111.152016" y2="24.512022" id="gradient_1">
      <stop offset="0%" stop-color="#5F5F5F" />
      <stop offset="100%" stop-color="#881F9D" />
    </linearGradient>
    <linearGradient gradientUnits="userSpaceOnUse" x1="0" y1="0" x2="14.499999" y2="14.5" id="gradient_2">
      <stop offset="0%" stop-color="#C31A20" />
      <stop offset="100%" stop-color="#8120AC" />
    </linearGradient>
    <path d="M20.3537 22.253C14.6911 27.9156 5.51019 27.9155 -0.152397 22.2529" id="path_1" />
    <path d="M77.0001 7.74695C82.6627 2.08435 91.8436 2.08436 97.5062 7.74696" id="path_2" />
    <rect width="116" height="27.000002" id="artboard_1" />
    <clipPath id="clip_1">
      <use xlink:href="#artboard_1" clip-rule="evenodd" />
    </clipPath>
    <clipPath id="clip_2">
      <use xlink:href="#path_1" />
    </clipPath>
    <clipPath id="clip_3">
      <use xlink:href="#path_2" />
    </clipPath>
  </defs>
  <g id="Artboard" clip-path="url(#clip_1)">
    <path d="M109.768 -0.603455L113.352 -0.203455L113.352 23.4765L110.2 23.4765L109.944 21.3965C109.368 22.1965 108.68 22.8152 107.88 23.2525C107.08 23.6899 106.184 23.9085 105.192 23.9085C103.741 23.9085 102.547 23.5379 101.608 22.7965C100.669 22.0552 99.9734 21.0152 99.52 19.6765C99.0667 18.3379 98.84 16.7885 98.84 15.0285C98.84 13.3112 99.1067 11.7832 99.64 10.4445C100.173 9.10588 100.936 8.05255 101.928 7.28455C102.92 6.51655 104.115 6.13255 105.512 6.13255C106.397 6.13255 107.192 6.28988 107.896 6.60455C108.6 6.91921 109.224 7.37521 109.768 7.97255L109.768 -0.603455ZM106.456 8.88452C105.251 8.88452 104.312 9.38319 103.64 10.3805C102.968 11.3779 102.632 12.9272 102.632 15.0285C102.632 16.4685 102.771 17.6392 103.048 18.5405C103.325 19.4419 103.725 20.1032 104.248 20.5245C104.771 20.9459 105.4 21.1565 106.136 21.1565C106.947 21.1565 107.651 20.9219 108.248 20.4525C108.845 19.9832 109.352 19.4179 109.768 18.7565L109.768 10.7565C109.352 10.1592 108.867 9.69785 108.312 9.37252C107.757 9.04719 107.139 8.88452 106.456 8.88452L106.456 8.88452ZM87.416 6.13257C89.0693 6.13257 90.4613 6.50057 91.592 7.23657C92.7227 7.97257 93.5787 9.0019 94.16 10.3246C94.7413 11.6472 95.032 13.2046 95.032 14.9966C95.032 16.7779 94.736 18.3379 94.144 19.6766C93.552 21.0152 92.688 22.0552 91.552 22.7966C90.416 23.5379 89.032 23.9086 87.4 23.9086C85.768 23.9086 84.384 23.5486 83.248 22.8286C82.112 22.1086 81.248 21.0819 80.656 19.7486C80.064 18.4152 79.768 16.8419 79.768 15.0286C79.768 13.2686 80.064 11.7219 80.656 10.3886C81.248 9.05523 82.1147 8.01257 83.256 7.26057C84.3973 6.50857 85.784 6.13257 87.416 6.13257L87.416 6.13257ZM87.416 8.91656C86.1254 8.91656 85.1547 9.4099 84.504 10.3966C83.8533 11.3832 83.528 12.9272 83.528 15.0286C83.528 17.1192 83.8507 18.6606 84.496 19.6526C85.1413 20.6446 86.1094 21.1406 87.4 21.1406C88.6907 21.1406 89.6587 20.6446 90.304 19.6526C90.9493 18.6606 91.272 17.1086 91.272 14.9966C91.272 12.9166 90.952 11.3832 90.312 10.3966C89.672 9.4099 88.7067 8.91656 87.416 8.91656L87.416 8.91656ZM72.76 8.35654C72.76 7.34321 72.5654 6.53254 72.176 5.92454C71.7867 5.31654 71.2374 4.87387 70.528 4.59654C69.8187 4.31921 68.984 4.18054 68.024 4.18054L65.368 4.18054L65.368 12.7725L68.072 12.7725C69 12.7725 69.816 12.6339 70.52 12.3565C71.224 12.0792 71.7734 11.6205 72.168 10.9805C72.5627 10.3405 72.76 9.46587 72.76 8.35654L72.76 8.35654ZM76.664 8.32454C76.664 10.0419 76.2987 11.4339 75.568 12.5005C74.8373 13.5672 73.8213 14.3512 72.52 14.8525C71.2187 15.3539 69.7253 15.6045 68.04 15.6045L65.368 15.6045L65.368 23.4765L61.656 23.4765L61.656 1.39655L67.784 1.39655C70.5573 1.39655 72.7307 1.96455 74.304 3.10055C75.8773 4.23654 76.664 5.97788 76.664 8.32454L76.664 8.32454ZM42.408 23.4766L42.408 20.9166L44.888 20.9166L44.888 9.12456L42.408 9.12456L42.408 6.58056L47.624 6.58056L48.28 10.5006C48.9094 9.08189 49.6907 8.00189 50.624 7.26056C51.5574 6.51923 52.76 6.14856 54.232 6.14856C54.7334 6.14856 55.184 6.18856 55.584 6.26856C55.984 6.34856 56.3814 6.45256 56.776 6.58056L55.704 9.65256C55.3627 9.55656 55.0427 9.48456 54.744 9.43656C54.4454 9.38856 54.1147 9.36456 53.752 9.36456C52.5254 9.36456 51.4667 9.82323 50.576 10.7406C49.6854 11.6579 48.984 12.9592 48.472 14.6446L48.472 20.9166L51.88 20.9166L51.88 23.4766L42.408 23.4766ZM53.608 12.8046L53.608 8.64457L54.056 6.58057L56.776 6.58057L56.168 12.8046L53.608 12.8046ZM26.632 6.58057L26.632 18.3886C26.632 19.3912 26.832 20.1059 27.232 20.5326C27.632 20.9592 28.2374 21.1726 29.048 21.1726C29.816 21.1726 30.5574 20.9432 31.272 20.4846C31.9867 20.0259 32.552 19.4659 32.968 18.8046L32.968 6.58057L36.552 6.58057L36.552 23.4766L33.464 23.4766L33.24 21.3166C32.6107 22.1592 31.816 22.8019 30.856 23.2446C29.896 23.6872 28.9147 23.9086 27.912 23.9086C26.28 23.9086 25.0614 23.4579 24.256 22.5566C23.4507 21.6552 23.048 20.4152 23.048 18.8366L23.048 6.58057L26.632 6.58057ZM19 12.4365C19 14.7085 18.6853 16.7059 18.056 18.4285C17.4267 20.1512 16.488 21.4952 15.24 22.4605C13.992 23.4259 12.4453 23.9085 10.6 23.9085C8.76535 23.9085 7.22135 23.4365 5.96801 22.4925C4.71468 21.5485 3.77335 20.2205 3.14401 18.5085C2.51468 16.7965 2.20001 14.7832 2.20001 12.4685C2.20001 10.1859 2.51468 8.18321 3.14401 6.46055C3.77335 4.73788 4.71468 3.38855 5.96801 2.41255C7.22135 1.43655 8.76535 0.948547 10.6 0.948547C12.4453 0.948547 13.992 1.42321 15.24 2.37255C16.488 3.32188 17.4267 4.65788 18.056 6.38055C18.6853 8.10321 19 10.1219 19 12.4365L19 12.4365ZM15.16 12.4365C15.16 9.57788 14.8054 7.43121 14.096 5.99654C13.3867 4.56188 12.2214 3.84454 10.6 3.84454C8.97871 3.84454 7.81337 4.56721 7.10404 6.01254C6.39471 7.45788 6.04004 9.60988 6.04004 12.4685C6.04004 15.3165 6.40271 17.4525 7.12804 18.8765C7.85337 20.3005 9.01071 21.0125 10.6 21.0125C12.2427 21.0125 13.4134 20.2952 14.112 18.8605C14.8107 17.4259 15.16 15.2845 15.16 12.4365L15.16 12.4365Z" id="OurPod" fill="url(#gradient_1)" stroke="none" artboard="db9fec27-615a-42b1-8beb-04c37c8f3646" />
    <g id="Oval" artboard="00af10a0-7dad-4741-9d58-ca14a2ccf3a3">
      <g clip-path="url(#clip_2)">
        <use xlink:href="#path_1" fill="none" stroke="url(#gradient_2)" stroke-width="4" />
      </g>
    </g>
    <g id="Oval-Copy" artboard="d06066d8-e2d5-4387-af3c-92c16847b352">
      <g clip-path="url(#clip_3)">
        <use xlink:href="#path_2" fill="none" stroke="url(#gradient_2)" stroke-width="4" />
      </g>
    </g>
  </g>
</svg>